<?xml version="1.0" encoding="utf-8"?>
<!-- Generator: Adobe Illustrator 20.1.0, SVG Export Plug-In . SVG Version: 6.00 Build 0)  -->
<svg version="1.1" id="Layer_1" xmlns="http://www.w3.org/2000/svg" xmlns:xlink="http://www.w3.org/1999/xlink" x="0px" y="0px"
	 viewBox="0 0 480 100" style="enable-background:new 0 0 480 100;" xml:space="preserve">
<style type="text/css">
	.st0{fill:#E6E7E8;}
	.st1{fill:#F2F2F2;}
	.st2{font-family:'OpenSans-Extrabold';}
	.st3{font-size:36px;}
	.st4{font-family:'OpenSans-Light';}
</style>
<g>
	<text transform="matrix(1 0 0 1 -494.8555 152.0322)"><tspan x="0" y="0" class="st1 st2" style="font-size:48px;">APOLLO </tspan><tspan x="210" y="0" class="st1 st4" style="font-size:48px;">INDUSTRIES</tspan></text>
	<g>
		<polygon class="st0" points="-248.2,-22.7 -238,3.2 -256.9,33.6 -282.7,33.6 		"/>
		<polygon class="st0" points="-209.6,62.8 -231.6,66 -253,33.6 -239.9,12 		"/>
		<polygon class="st0" points="-310.4,55.8 -299.2,36.6 -254.4,36.6 -241.8,55.8 		"/>
	</g>
</g>
<g>
	<text transform="matrix(1 0 0 1 118.5051 67.3164)"><tspan x="0" y="0" class="st1 st2 st3">APOLLO </tspan><tspan x="157.5" y="0" class="st1 st4 st3">INDUSTRIES</tspan></text>
	<g>
		<polygon class="st0" points="71.4,5.7 81.7,31.5 62.7,61.9 36.9,61.9 		"/>
		<polygon class="st0" points="110.1,91.2 88.1,94.3 66.6,61.9 79.8,40.3 		"/>
		<polygon class="st0" points="9.2,84.1 20.5,65 65.2,65 77.8,84.1 		"/>
	</g>
</g>
</svg>
